<svg t="1653469974169" class="icon" viewBox="0 0 1024 1024" version="1.1" xmlns="http://www.w3.org/2000/svg" p-id="2964" width="16" height="16"><path d="M256.6656 240.0256l-16.64 16.64c-74.24 74.24-74.24 195.072 0 269.312l85.0432 85.0432c4.8128 4.8128 11.3152 7.5264 18.1248 7.5264s13.312-2.7136 18.1248-7.5264l57.088-57.088a25.61536 25.61536 0 0 0 0-36.1984 25.61536 25.61536 0 0 0-36.1984 0l-38.9632 38.9632-67.0208-66.9696c-54.272-54.272-54.272-142.592 0-196.864l16.64-16.64c54.272-54.272 142.592-54.272 196.864 0l66.9696 66.9184-37.7344 37.7344a25.61536 25.61536 0 0 0 0 36.1984 25.61536 25.61536 0 0 0 36.1984 0l55.808-55.808c4.8128-4.8128 7.5264-11.3152 7.5264-18.1248s-2.7136-13.312-7.5264-18.1248l-85.0432-85.0432c-74.24-74.1888-195.0208-74.24-269.2608 0.0512zM662.7328 412.9792l-55.808 55.808a25.61536 25.61536 0 0 0 0 36.1984 25.61536 25.61536 0 0 0 36.1984 0l37.7344-37.7344 66.9696 66.9184c54.272 54.272 54.272 142.592 0 196.864l-16.64 16.64c-54.272 54.272-142.592 54.272-196.864 0l-66.9184-66.9696 38.9632-38.9632a25.61536 25.61536 0 0 0 0-36.1984 25.61536 25.61536 0 0 0-36.1984 0l-57.088 57.088c-4.8128 4.8128-7.4752 11.3152-7.4752 18.1248s2.7136 13.312 7.4752 18.1248l85.0432 85.0432c37.12 37.12 85.8624 55.7056 134.656 55.7056 48.7424 0 97.536-18.5856 134.656-55.7056l16.64-16.64c74.24-74.24 74.24-195.072 0-269.312l-85.0432-85.0432c-10.0864-9.9328-26.3168-9.9328-36.3008 0.0512z" p-id="2965"></path><path d="M646.656 646.656a25.61536 25.61536 0 0 0 0-36.1984L413.5936 377.344a25.61536 25.61536 0 0 0-36.1984 0 25.61536 25.61536 0 0 0 0 36.1984l233.0624 233.0624a25.5488 25.5488 0 0 0 18.1248 7.5264c6.5024 0 13.056-2.4576 18.0736-7.4752zM686.8992 296.0384l18.5344-69.2736c3.6352-13.6704-4.4544-27.6992-18.1248-31.3856-13.6704-3.6352-27.6992 4.4544-31.3856 18.1248l-18.5344 69.2736c-3.6352 13.6704 4.4544 27.6992 18.1248 31.3856 13.6704 3.6864 27.6992-4.4544 31.3856-18.1248zM797.184 318.5664l-69.2736 18.5344c-13.6704 3.6352-21.76 17.7152-18.1248 31.3856s17.7152 21.76 31.3856 18.1248l69.2736-18.5344c13.6704-3.6352 21.76-17.7152 18.1248-31.3856a25.66144 25.66144 0 0 0-31.3856-18.1248zM282.8288 637.3888l-69.2736 18.5344c-13.6704 3.6352-21.76 17.7152-18.1248 31.3856s17.7152 21.76 31.3856 18.1248l69.2736-18.5344c13.6704-3.6352 21.76-17.7152 18.1248-31.3856a25.68704 25.68704 0 0 0-31.3856-18.1248zM337.1008 727.9616l-18.5344 69.2736c-3.6352 13.6704 4.4544 27.6992 18.1248 31.3856 13.6704 3.6352 27.6992-4.4544 31.3856-18.1248l18.5344-69.2736c3.6352-13.6704-4.4544-27.6992-18.1248-31.3856-13.6704-3.6864-27.6992 4.4544-31.3856 18.1248z" p-id="2966"></path></svg>