<svg t="1653233195156" class="icon" viewBox="0 0 1024 1024" version="1.1" xmlns="http://www.w3.org/2000/svg" p-id="3440" width="64" height="64"><path d="M213.333333 85.333333h597.333334a85.333333 85.333333 0 0 1 85.333333 85.333334v85.333333a85.333333 85.333333 0 0 1-85.333333 85.333333H213.333333a85.333333 85.333333 0 0 1-85.333333-85.333333V170.666667a85.333333 85.333333 0 0 1 85.333333-85.333334z m256 85.333334a42.666667 42.666667 0 0 0 0 85.333333h213.333334a42.666667 42.666667 0 0 0 0-85.333333h-213.333334zM298.666667 256a42.666667 42.666667 0 1 0 0-85.333333 42.666667 42.666667 0 0 0 0 85.333333z" fill="#000000" opacity=".3" p-id="3441"></path><path d="M213.333333 384h597.333334a85.333333 85.333333 0 0 1 85.333333 85.333333v85.333334a85.333333 85.333333 0 0 1-85.333333 85.333333H213.333333a85.333333 85.333333 0 0 1-85.333333-85.333333v-85.333334a85.333333 85.333333 0 0 1 85.333333-85.333333z m256 85.333333a42.666667 42.666667 0 0 0 0 85.333334h213.333334a42.666667 42.666667 0 0 0 0-85.333334h-213.333334z m-170.666666 85.333334a42.666667 42.666667 0 1 0 0-85.333334 42.666667 42.666667 0 0 0 0 85.333334zM213.333333 682.666667h597.333334a85.333333 85.333333 0 0 1 85.333333 85.333333v85.333333a85.333333 85.333333 0 0 1-85.333333 85.333334H213.333333a85.333333 85.333333 0 0 1-85.333333-85.333334v-85.333333a85.333333 85.333333 0 0 1 85.333333-85.333333z m256 85.333333a42.666667 42.666667 0 0 0 0 85.333333h213.333334a42.666667 42.666667 0 0 0 0-85.333333h-213.333334z m-170.666666 85.333333a42.666667 42.666667 0 1 0 0-85.333333 42.666667 42.666667 0 0 0 0 85.333333z" fill="#000000" p-id="3442"></path></svg>